<svg viewBox="0 0 703 304" fill="none" xmlns="http://www.w3.org/2000/svg">
<g clip-path="url(#clip0_945_660)">
<path d="M43.6573 36.2304H216.961L224.481 0H51.1903L43.6573 36.2304ZM0.946289 241.65H42.3033L63.4953 139.453H195.744L203.264 103.222H29.7283" fill="currentColor"/>
<path d="M262.42 241.65H284.98L292.16 207.812H276.092C256.952 207.812 251.141 201.318 254.901 182.177L292.84 0H254.217L215.936 184.57C207.733 223.535 222.772 241.65 262.42 241.65Z" fill="currentColor"/>
<path d="M383.071 243.7C407.001 243.7 425.461 234.472 434.001 223.876L430.241 241.65H468.181L505.441 62.5489H467.501L463.401 82.373C457.931 70.4102 438.791 60.1563 421.361 59.8145C367.691 60.8399 333.171 87.8417 321.891 142.187L318.131 159.277C307.201 211.913 330.781 243.7 383.071 243.7ZM356.761 158.593L359.831 142.871C366.671 110.058 385.131 95.0195 413.841 94.6777C444.601 94.6777 455.881 116.211 450.071 144.238L445.971 164.404C440.151 191.064 425.121 209.179 390.251 209.179C360.861 209.179 349.581 192.089 356.761 158.593Z" fill="currentColor"/>
<path d="M615.15 297.021L613.78 303.518H652.09L653.44 297.021L702.65 60.8399H665.06L660.61 81.6894C651.04 65.625 634.3 57.4219 612.08 57.4219C568.33 57.4219 533.81 87.8418 522.87 140.136L518.08 162.011C507.15 215.331 529.36 244.726 573.11 244.726C596.36 245.068 616.18 236.865 631.22 220.8L615.15 297.021ZM557.73 159.96L561.49 142.187C568.33 109.033 586.44 91.9433 614.13 91.9433C641.47 91.9433 654.12 109.375 647.97 139.795L643.18 163.037C637.03 192.089 616.52 210.204 588.84 210.204C562.52 210.204 550.56 193.798 557.73 159.96Z" fill="currentColor"/>
</g>
<defs>
<clipPath id="clip0_945_660">
<rect width="701.708" height="303.518" fill="white" transform="translate(0.946289)"/>
</clipPath>
</defs>
</svg>
