<?xml version="1.0" encoding="utf-8"?>
<svg viewBox="1959.75 0 600 600" xmlns="http://www.w3.org/2000/svg" xmlns:xlink="http://www.w3.org/1999/xlink">
  <!--Generated by AMDN-->
  <g id="am1"/>
  <g id="am2">
    <path id="am3" style="fill:#141a14;fill-opacity:1;fill-rule:evenodd;opacity:1;stroke:#000000;stroke-linecap:round;stroke-linejoin:round;stroke-miterlimit:10;stroke-opacity:1;stroke-width:1;" d="M1959.75,100 C1959.75,38.1441,1997.89,-1.33227e-13,2059.75,-1.33227e-13 C2059.75,-1.33227e-13,2459.75,-1.33227e-13,2459.75,-1.33227e-13 C2521.6,-1.33227e-13,2559.75,38.1441,2559.75,100 C2559.75,100,2559.75,500,2559.75,500 C2559.75,561.856,2521.6,600,2459.75,600 C2459.75,600,2059.75,600,2059.75,600 C1997.89,600,1959.75,561.856,1959.75,500 C1959.75,500,1959.75,100,1959.75,100 z"/>
    <path id="am4" style="fill:#c2f0c2;fill-opacity:1;fill-rule:nonzero;opacity:1;stroke:none;" d="M2203.3,222.113 C2203.3,222.113,2376.61,222.113,2376.61,222.113 C2376.61,222.113,2384.13,185.882,2384.13,185.882 C2384.13,185.882,2210.84,185.882,2210.84,185.882 C2210.84,185.882,2203.3,222.113,2203.3,222.113 M2160.59,427.532 C2160.59,427.532,2201.95,427.532,2201.95,427.532 C2201.95,427.532,2223.14,325.335,2223.14,325.335 C2223.14,325.335,2355.39,325.335,2355.39,325.335 C2355.39,325.335,2362.91,289.105,2362.91,289.105 C2362.91,289.105,2189.37,289.105,2189.37,289.105"/>
  </g>
  <g id="am5"/>
</svg>
