<?xml version="1.0" encoding="utf-8"?>
<svg viewBox="0 0 600 600" xmlns="http://www.w3.org/2000/svg" xmlns:xlink="http://www.w3.org/1999/xlink">
  <!--Generated by AMDN-->
  <g id="Layer 1">
    <path id="Path" style="fill:#141a15;fill-opacity:1;fill-rule:evenodd;opacity:1;stroke:#000000;stroke-linecap:round;stroke-linejoin:round;stroke-miterlimit:10;stroke-opacity:1;stroke-width:1;" d="M1.33227e-13,100 C1.33227e-13,38.1441,38.1441,-1.33227e-13,100,-1.33227e-13 C100,-1.33227e-13,500,-1.33227e-13,500,-1.33227e-13 C561.856,-1.33227e-13,600,38.1441,600,100 C600,100,600,500,600,500 C600,561.856,561.856,600,500,600 C500,600,100,600,100,600 C38.1441,600,1.33227e-13,561.856,1.33227e-13,500 C1.33227e-13,500,1.33227e-13,100,1.33227e-13,100 z"/>
    <g id="Text">
      <g id="Text">
        <path style="fill:#c2f0c2;fill-opacity:1;fill-rule:nonzero;opacity:1;stroke:none;" d="M266.485,356.223 C266.485,356.223,305.792,356.223,305.792,356.223 C305.792,356.223,308.526,342.893,308.526,342.893 C311.602,328.538,315.704,321.702,328.692,311.448 C328.692,311.448,354.669,289.231,354.669,289.231 C372.442,274.534,383.038,258.47,387.139,238.987 C395,201.048,371.758,177.464,324.59,177.464 C276.055,177.464,246.319,200.365,236.065,244.114 C236.065,244.114,274.688,244.114,274.688,244.114 C279.132,223.607,292.12,213.353,316.046,213.353 C339.971,213.353,349.883,222.923,346.124,241.038 C343.731,252.659,337.579,260.862,322.198,273.167 C322.198,273.167,299.298,292.308,299.298,292.308 C280.499,307.005,274.688,316.917,270.245,338.792 C270.245,338.792,266.485,356.223,266.485,356.223 z M251.104,422.532 C251.104,422.532,293.487,422.532,293.487,422.532 C293.487,422.532,302.032,381.175,302.032,381.175 C302.032,381.175,259.649,381.175,259.649,381.175 C259.649,381.175,251.104,422.532,251.104,422.532 z"/>
      </g>
    </g>
  </g>
</svg>
